<?xml version="1.0" encoding="UTF-8" standalone="no"?>
<!DOCTYPE svg PUBLIC "-//W3C//DTD SVG 1.1//EN"
 "http://www.w3.org/Graphics/SVG/1.1/DTD/svg11.dtd">
<!-- Generated by graphviz version 2.38.0 (20140413.2041)
 -->
<!-- Title: %3 Pages: 1 -->
<svg width="976pt" height="260pt"
 viewBox="0.00 0.00 976.00 260.00" xmlns="http://www.w3.org/2000/svg" xmlns:xlink="http://www.w3.org/1999/xlink">
<g id="graph0" class="graph" transform="scale(1 1) rotate(0) translate(4 256)">
<title>%3</title>
<polygon fill="white" stroke="none" points="-4,4 -4,-256 972,-256 972,4 -4,4"/>
<!-- books -->
<g id="node1" class="node"><title>books</title>
<polygon fill="none" stroke="gray" points="418,-252 357,-252 357,-216 424,-216 424,-246 418,-252"/>
<polyline fill="none" stroke="gray" points="418,-252 418,-246 "/>
<polyline fill="none" stroke="gray" points="424,-246 418,-246 "/>
<text text-anchor="middle" x="390.5" y="-229" font-family="Tahoma" font-size="20.00">books</text>
</g>
<!-- book_authors -->
<g id="node2" class="node"><title>book_authors</title>
<polygon fill="none" stroke="gray" points="131,-180 0,-180 0,-144 137,-144 137,-174 131,-180"/>
<polyline fill="none" stroke="gray" points="131,-180 131,-174 "/>
<polyline fill="none" stroke="gray" points="137,-174 131,-174 "/>
<text text-anchor="middle" x="68.5" y="-157" font-family="Tahoma" font-size="20.00">book_authors</text>
</g>
<!-- books&#45;&#45;book_authors -->
<g id="edge1" class="edge"><title>books&#45;&#45;book_authors</title>
<path fill="none" stroke="gray" d="M356.95,-225.72C309.912,-215.512 221.685,-196.359 146.5,-180 143.521,-179.352 140.477,-178.689 137.403,-178.02"/>
<text text-anchor="middle" x="141.403" y="-180.62" font-family="Tahoma" font-size="8.00" fill="navy">∞</text>
<text text-anchor="middle" x="352.95" y="-228.32" font-family="Tahoma" font-size="8.00" fill="navy">∞</text>
</g>
<!-- book_series -->
<g id="node5" class="node"><title>book_series</title>
<polygon fill="none" stroke="gray" points="269.5,-180 155.5,-180 155.5,-144 275.5,-144 275.5,-174 269.5,-180"/>
<polyline fill="none" stroke="gray" points="269.5,-180 269.5,-174 "/>
<polyline fill="none" stroke="gray" points="275.5,-174 269.5,-174 "/>
<text text-anchor="middle" x="215.5" y="-157" font-family="Tahoma" font-size="20.00">book_series</text>
</g>
<!-- books&#45;&#45;book_series -->
<g id="edge4" class="edge"><title>books&#45;&#45;book_series</title>
<path fill="none" stroke="gray" d="M356.758,-219.503C328.65,-208.26 288.458,-192.183 258.128,-180.051"/>
<text text-anchor="middle" x="254.128" y="-182.651" font-family="Tahoma" font-size="8.00" fill="navy">∞</text>
<text text-anchor="middle" x="352.758" y="-213.103" font-family="Tahoma" font-size="8.00" fill="navy">∞</text>
</g>
<!-- thumbs -->
<g id="node7" class="node"><title>thumbs</title>
<polygon fill="none" stroke="gray" points="369,-180 294,-180 294,-144 375,-144 375,-174 369,-180"/>
<polyline fill="none" stroke="gray" points="369,-180 369,-174 "/>
<polyline fill="none" stroke="gray" points="375,-174 369,-174 "/>
<text text-anchor="middle" x="334.5" y="-157" font-family="Tahoma" font-size="20.00">thumbs</text>
</g>
<!-- books&#45;&#45;thumbs -->
<g id="edge6" class="edge"><title>books&#45;&#45;thumbs</title>
<path fill="none" stroke="gray" d="M376.657,-215.697C367.977,-204.846 356.833,-190.917 348.183,-180.104"/>
<text text-anchor="middle" x="345.683" y="-182.704" font-family="Tahoma" font-size="8.00" fill="navy">1</text>
<text text-anchor="middle" x="372.657" y="-209.297" font-family="Tahoma" font-size="8.00" fill="navy">∞</text>
</g>
<!-- book_reviews -->
<g id="node8" class="node"><title>book_reviews</title>
<polygon fill="none" stroke="gray" points="771.5,-180 641.5,-180 641.5,-144 777.5,-144 777.5,-174 771.5,-180"/>
<polyline fill="none" stroke="gray" points="771.5,-180 771.5,-174 "/>
<polyline fill="none" stroke="gray" points="777.5,-174 771.5,-174 "/>
<text text-anchor="middle" x="709.5" y="-157" font-family="Tahoma" font-size="20.00">book_reviews</text>
</g>
<!-- books&#45;&#45;book_reviews -->
<g id="edge7" class="edge"><title>books&#45;&#45;book_reviews</title>
<path fill="none" stroke="gray" d="M424.036,-225.641C475.384,-214.373 574.554,-192.612 641.398,-177.944"/>
<text text-anchor="middle" x="637.398" y="-180.544" font-family="Tahoma" font-size="8.00" fill="navy">∞</text>
<text text-anchor="middle" x="426.536" y="-228.241" font-family="Tahoma" font-size="8.00" fill="navy">1</text>
</g>
<!-- book_tags -->
<g id="node12" class="node"><title>book_tags</title>
<polygon fill="none" stroke="gray" points="494,-180 393,-180 393,-144 500,-144 500,-174 494,-180"/>
<polyline fill="none" stroke="gray" points="494,-180 494,-174 "/>
<polyline fill="none" stroke="gray" points="500,-174 494,-174 "/>
<text text-anchor="middle" x="446.5" y="-157" font-family="Tahoma" font-size="20.00">book_tags</text>
</g>
<!-- books&#45;&#45;book_tags -->
<g id="edge12" class="edge"><title>books&#45;&#45;book_tags</title>
<path fill="none" stroke="gray" d="M404.343,-215.697C413.023,-204.846 424.167,-190.917 432.817,-180.104"/>
<text text-anchor="middle" x="428.817" y="-182.704" font-family="Tahoma" font-size="8.00" fill="navy">∞</text>
<text text-anchor="middle" x="400.343" y="-209.297" font-family="Tahoma" font-size="8.00" fill="navy">∞</text>
</g>
<!-- book_files -->
<g id="node15" class="node"><title>book_files</title>
<polygon fill="none" stroke="gray" points="617,-180 518,-180 518,-144 623,-144 623,-174 617,-180"/>
<polyline fill="none" stroke="gray" points="617,-180 617,-174 "/>
<polyline fill="none" stroke="gray" points="623,-174 617,-174 "/>
<text text-anchor="middle" x="570.5" y="-157" font-family="Tahoma" font-size="20.00">book_files</text>
</g>
<!-- books&#45;&#45;book_files -->
<g id="edge14" class="edge"><title>books&#45;&#45;book_files</title>
<path fill="none" stroke="gray" d="M424.357,-219.834C453.279,-208.586 495.081,-192.33 526.575,-180.082"/>
<text text-anchor="middle" x="522.575" y="-182.682" font-family="Tahoma" font-size="8.00" fill="navy">∞</text>
<text text-anchor="middle" x="428.357" y="-213.434" font-family="Tahoma" font-size="8.00" fill="navy">∞</text>
</g>
<!-- authors -->
<g id="node3" class="node"><title>authors</title>
<polygon fill="none" stroke="gray" points="130.5,-108 54.5,-108 54.5,-72 136.5,-72 136.5,-102 130.5,-108"/>
<polyline fill="none" stroke="gray" points="130.5,-108 130.5,-102 "/>
<polyline fill="none" stroke="gray" points="136.5,-102 130.5,-102 "/>
<text text-anchor="middle" x="95.5" y="-85" font-family="Tahoma" font-size="20.00">authors</text>
</g>
<!-- book_authors&#45;&#45;authors -->
<g id="edge2" class="edge"><title>book_authors&#45;&#45;authors</title>
<path fill="none" stroke="gray" d="M75.1742,-143.697C79.3593,-132.846 84.7321,-118.917 88.9026,-108.104"/>
<text text-anchor="middle" x="84.9026" y="-110.704" font-family="Tahoma" font-size="8.00" fill="navy">∞</text>
<text text-anchor="middle" x="71.1742" y="-137.297" font-family="Tahoma" font-size="8.00" fill="navy">∞</text>
</g>
<!-- author_ratings -->
<g id="node4" class="node"><title>author_ratings</title>
<polygon fill="none" stroke="gray" points="517,-36 378,-36 378,-0 523,-0 523,-30 517,-36"/>
<polyline fill="none" stroke="gray" points="517,-36 517,-30 "/>
<polyline fill="none" stroke="gray" points="523,-30 517,-30 "/>
<text text-anchor="middle" x="450.5" y="-13" font-family="Tahoma" font-size="20.00">author_ratings</text>
</g>
<!-- authors&#45;&#45;author_ratings -->
<g id="edge3" class="edge"><title>authors&#45;&#45;author_ratings</title>
<path fill="none" stroke="gray" d="M136.748,-79.804C148.6,-77.2176 161.551,-74.4448 173.5,-72 242.695,-57.8422 321.86,-42.8117 377.789,-32.3873"/>
<text text-anchor="middle" x="373.789" y="-34.9873" font-family="Tahoma" font-size="8.00" fill="navy">∞</text>
<text text-anchor="middle" x="139.248" y="-82.404" font-family="Tahoma" font-size="8.00" fill="navy">1</text>
</g>
<!-- series -->
<g id="node6" class="node"><title>series</title>
<polygon fill="none" stroke="gray" points="242.5,-108 182.5,-108 182.5,-72 248.5,-72 248.5,-102 242.5,-108"/>
<polyline fill="none" stroke="gray" points="242.5,-108 242.5,-102 "/>
<polyline fill="none" stroke="gray" points="248.5,-102 242.5,-102 "/>
<text text-anchor="middle" x="215.5" y="-85" font-family="Tahoma" font-size="20.00">series</text>
</g>
<!-- book_series&#45;&#45;series -->
<g id="edge5" class="edge"><title>book_series&#45;&#45;series</title>
<path fill="none" stroke="gray" d="M215.5,-143.697C215.5,-132.846 215.5,-118.917 215.5,-108.104"/>
<text text-anchor="middle" x="211.5" y="-110.704" font-family="Tahoma" font-size="8.00" fill="navy">∞</text>
<text text-anchor="middle" x="211.5" y="-137.297" font-family="Tahoma" font-size="8.00" fill="navy">∞</text>
</g>
<!-- users -->
<g id="node9" class="node"><title>users</title>
<polygon fill="none" stroke="gray" points="830.5,-252 774.5,-252 774.5,-216 836.5,-216 836.5,-246 830.5,-252"/>
<polyline fill="none" stroke="gray" points="830.5,-252 830.5,-246 "/>
<polyline fill="none" stroke="gray" points="836.5,-246 830.5,-246 "/>
<text text-anchor="middle" x="805.5" y="-229" font-family="Tahoma" font-size="20.00">users</text>
</g>
<!-- users&#45;&#45;author_ratings -->
<g id="edge11" class="edge"><title>users&#45;&#45;author_ratings</title>
<path fill="none" stroke="gray" d="M806.372,-215.875C806.443,-196.283 803.606,-164.296 786.5,-144 720.519,-65.713 600.597,-36.4237 523.301,-25.4876"/>
<text text-anchor="middle" x="527.301" y="-28.0876" font-family="Tahoma" font-size="8.00" fill="navy">∞</text>
<text text-anchor="middle" x="803.872" y="-209.475" font-family="Tahoma" font-size="8.00" fill="navy">1</text>
</g>
<!-- users&#45;&#45;book_reviews -->
<g id="edge10" class="edge"><title>users&#45;&#45;book_reviews</title>
<path fill="none" stroke="gray" d="M781.77,-215.697C766.889,-204.846 747.786,-190.917 732.957,-180.104"/>
<text text-anchor="middle" x="728.957" y="-182.704" font-family="Tahoma" font-size="8.00" fill="navy">∞</text>
<text text-anchor="middle" x="779.27" y="-209.297" font-family="Tahoma" font-size="8.00" fill="navy">1</text>
</g>
<!-- user_groups -->
<g id="node10" class="node"><title>user_groups</title>
<polygon fill="none" stroke="gray" points="953.5,-180 833.5,-180 833.5,-144 959.5,-144 959.5,-174 953.5,-180"/>
<polyline fill="none" stroke="gray" points="953.5,-180 953.5,-174 "/>
<polyline fill="none" stroke="gray" points="959.5,-174 953.5,-174 "/>
<text text-anchor="middle" x="896.5" y="-157" font-family="Tahoma" font-size="20.00">user_groups</text>
</g>
<!-- users&#45;&#45;user_groups -->
<g id="edge8" class="edge"><title>users&#45;&#45;user_groups</title>
<path fill="none" stroke="gray" d="M827.994,-215.697C842.1,-204.846 860.208,-190.917 874.264,-180.104"/>
<text text-anchor="middle" x="870.264" y="-182.704" font-family="Tahoma" font-size="8.00" fill="navy">∞</text>
<text text-anchor="middle" x="823.994" y="-209.297" font-family="Tahoma" font-size="8.00" fill="navy">∞</text>
</g>
<!-- groups -->
<g id="node11" class="node"><title>groups</title>
<polygon fill="none" stroke="gray" points="928.5,-108 858.5,-108 858.5,-72 934.5,-72 934.5,-102 928.5,-108"/>
<polyline fill="none" stroke="gray" points="928.5,-108 928.5,-102 "/>
<polyline fill="none" stroke="gray" points="934.5,-102 928.5,-102 "/>
<text text-anchor="middle" x="896.5" y="-85" font-family="Tahoma" font-size="20.00">groups</text>
</g>
<!-- user_groups&#45;&#45;groups -->
<g id="edge9" class="edge"><title>user_groups&#45;&#45;groups</title>
<path fill="none" stroke="gray" d="M896.5,-143.697C896.5,-132.846 896.5,-118.917 896.5,-108.104"/>
<text text-anchor="middle" x="892.5" y="-110.704" font-family="Tahoma" font-size="8.00" fill="navy">∞</text>
<text text-anchor="middle" x="892.5" y="-137.297" font-family="Tahoma" font-size="8.00" fill="navy">∞</text>
</g>
<!-- tags -->
<g id="node13" class="node"><title>tags</title>
<polygon fill="none" stroke="gray" points="467.5,-108 419.5,-108 419.5,-72 473.5,-72 473.5,-102 467.5,-108"/>
<polyline fill="none" stroke="gray" points="467.5,-108 467.5,-102 "/>
<polyline fill="none" stroke="gray" points="473.5,-102 467.5,-102 "/>
<text text-anchor="middle" x="446.5" y="-85" font-family="Tahoma" font-size="20.00">tags</text>
</g>
<!-- book_tags&#45;&#45;tags -->
<g id="edge13" class="edge"><title>book_tags&#45;&#45;tags</title>
<path fill="none" stroke="gray" d="M446.5,-143.697C446.5,-132.846 446.5,-118.917 446.5,-108.104"/>
<text text-anchor="middle" x="442.5" y="-110.704" font-family="Tahoma" font-size="8.00" fill="navy">∞</text>
<text text-anchor="middle" x="442.5" y="-137.297" font-family="Tahoma" font-size="8.00" fill="navy">∞</text>
</g>
<!-- app_config -->
<g id="node14" class="node"><title>app_config</title>
<polygon fill="none" stroke="gray" points="962,-252 855,-252 855,-216 968,-216 968,-246 962,-252"/>
<polyline fill="none" stroke="gray" points="962,-252 962,-246 "/>
<polyline fill="none" stroke="gray" points="968,-246 962,-246 "/>
<text text-anchor="middle" x="911.5" y="-229" font-family="Tahoma" font-size="20.00">app_config</text>
</g>
<!-- files -->
<g id="node16" class="node"><title>files</title>
<polygon fill="none" stroke="gray" points="591.5,-108 543.5,-108 543.5,-72 597.5,-72 597.5,-102 591.5,-108"/>
<polyline fill="none" stroke="gray" points="591.5,-108 591.5,-102 "/>
<polyline fill="none" stroke="gray" points="597.5,-102 591.5,-102 "/>
<text text-anchor="middle" x="570.5" y="-85" font-family="Tahoma" font-size="20.00">files</text>
</g>
<!-- book_files&#45;&#45;files -->
<g id="edge15" class="edge"><title>book_files&#45;&#45;files</title>
<path fill="none" stroke="gray" d="M570.5,-143.697C570.5,-132.846 570.5,-118.917 570.5,-108.104"/>
<text text-anchor="middle" x="566.5" y="-110.704" font-family="Tahoma" font-size="8.00" fill="navy">∞</text>
<text text-anchor="middle" x="566.5" y="-137.297" font-family="Tahoma" font-size="8.00" fill="navy">∞</text>
</g>
</g>
</svg>
