<?xml version="1.0" encoding="UTF-8" standalone="no"?>
<!DOCTYPE svg PUBLIC "-//W3C//DTD SVG 1.1//EN"
 "http://www.w3.org/Graphics/SVG/1.1/DTD/svg11.dtd">
<!-- Generated by graphviz version 2.38.0 (20140413.2041)
 -->
<!-- Title: %3 Pages: 1 -->
<svg width="845pt" height="260pt"
 viewBox="0.00 0.00 844.50 260.00" xmlns="http://www.w3.org/2000/svg" xmlns:xlink="http://www.w3.org/1999/xlink">
<g id="graph0" class="graph" transform="scale(1 1) rotate(0) translate(4 256)">
<title>%3</title>
<polygon fill="white" stroke="none" points="-4,4 -4,-256 840.5,-256 840.5,4 -4,4"/>
<!-- books -->
<g id="node1" class="node"><title>books</title>
<polygon fill="none" stroke="gray" points="362,-252 301,-252 301,-216 368,-216 368,-246 362,-252"/>
<polyline fill="none" stroke="gray" points="362,-252 362,-246 "/>
<polyline fill="none" stroke="gray" points="368,-246 362,-246 "/>
<text text-anchor="middle" x="334.5" y="-229" font-family="Tahoma" font-size="20.00">books</text>
</g>
<!-- book_authors -->
<g id="node2" class="node"><title>book_authors</title>
<polygon fill="none" stroke="gray" points="131,-180 0,-180 0,-144 137,-144 137,-174 131,-180"/>
<polyline fill="none" stroke="gray" points="131,-180 131,-174 "/>
<polyline fill="none" stroke="gray" points="137,-174 131,-174 "/>
<text text-anchor="middle" x="68.5" y="-157" font-family="Tahoma" font-size="20.00">book_authors</text>
</g>
<!-- books&#45;&#45;book_authors -->
<g id="edge1" class="edge"><title>books&#45;&#45;book_authors</title>
<path fill="none" stroke="gray" d="M300.811,-224.134C258.801,-213.079 186.08,-193.942 133.168,-180.018"/>
<text text-anchor="middle" x="129.168" y="-182.618" font-family="Tahoma" font-size="8.00" fill="navy">∞</text>
<text text-anchor="middle" x="296.811" y="-226.734" font-family="Tahoma" font-size="8.00" fill="navy">∞</text>
</g>
<!-- book_series -->
<g id="node5" class="node"><title>book_series</title>
<polygon fill="none" stroke="gray" points="269.5,-180 155.5,-180 155.5,-144 275.5,-144 275.5,-174 269.5,-180"/>
<polyline fill="none" stroke="gray" points="269.5,-180 269.5,-174 "/>
<polyline fill="none" stroke="gray" points="275.5,-174 269.5,-174 "/>
<text text-anchor="middle" x="215.5" y="-157" font-family="Tahoma" font-size="20.00">book_series</text>
</g>
<!-- books&#45;&#45;book_series -->
<g id="edge4" class="edge"><title>books&#45;&#45;book_series</title>
<path fill="none" stroke="gray" d="M305.389,-215.876C286.949,-205.029 263.185,-191.05 244.723,-180.19"/>
<text text-anchor="middle" x="240.723" y="-182.79" font-family="Tahoma" font-size="8.00" fill="navy">∞</text>
<text text-anchor="middle" x="301.389" y="-209.476" font-family="Tahoma" font-size="8.00" fill="navy">∞</text>
</g>
<!-- thumbs -->
<g id="node7" class="node"><title>thumbs</title>
<polygon fill="none" stroke="gray" points="369,-180 294,-180 294,-144 375,-144 375,-174 369,-180"/>
<polyline fill="none" stroke="gray" points="369,-180 369,-174 "/>
<polyline fill="none" stroke="gray" points="375,-174 369,-174 "/>
<text text-anchor="middle" x="334.5" y="-157" font-family="Tahoma" font-size="20.00">thumbs</text>
</g>
<!-- books&#45;&#45;thumbs -->
<g id="edge6" class="edge"><title>books&#45;&#45;thumbs</title>
<path fill="none" stroke="gray" d="M334.5,-215.697C334.5,-204.846 334.5,-190.917 334.5,-180.104"/>
<text text-anchor="middle" x="332" y="-182.704" font-family="Tahoma" font-size="8.00" fill="navy">1</text>
<text text-anchor="middle" x="330.5" y="-209.297" font-family="Tahoma" font-size="8.00" fill="navy">∞</text>
</g>
<!-- book_reviews -->
<g id="node8" class="node"><title>book_reviews</title>
<polygon fill="none" stroke="gray" points="648.5,-180 518.5,-180 518.5,-144 654.5,-144 654.5,-174 648.5,-180"/>
<polyline fill="none" stroke="gray" points="648.5,-180 648.5,-174 "/>
<polyline fill="none" stroke="gray" points="654.5,-174 648.5,-174 "/>
<text text-anchor="middle" x="586.5" y="-157" font-family="Tahoma" font-size="20.00">book_reviews</text>
</g>
<!-- books&#45;&#45;book_reviews -->
<g id="edge7" class="edge"><title>books&#45;&#45;book_reviews</title>
<path fill="none" stroke="gray" d="M368.224,-223.632C408.191,-212.53 475.577,-193.812 524.926,-180.104"/>
<text text-anchor="middle" x="520.926" y="-182.704" font-family="Tahoma" font-size="8.00" fill="navy">∞</text>
<text text-anchor="middle" x="370.724" y="-226.232" font-family="Tahoma" font-size="8.00" fill="navy">1</text>
</g>
<!-- book_tags -->
<g id="node12" class="node"><title>book_tags</title>
<polygon fill="none" stroke="gray" points="494,-180 393,-180 393,-144 500,-144 500,-174 494,-180"/>
<polyline fill="none" stroke="gray" points="494,-180 494,-174 "/>
<polyline fill="none" stroke="gray" points="500,-174 494,-174 "/>
<text text-anchor="middle" x="446.5" y="-157" font-family="Tahoma" font-size="20.00">book_tags</text>
</g>
<!-- books&#45;&#45;book_tags -->
<g id="edge12" class="edge"><title>books&#45;&#45;book_tags</title>
<path fill="none" stroke="gray" d="M361.898,-215.876C379.254,-205.029 401.62,-191.05 418.996,-180.19"/>
<text text-anchor="middle" x="414.996" y="-182.79" font-family="Tahoma" font-size="8.00" fill="navy">∞</text>
<text text-anchor="middle" x="357.898" y="-209.476" font-family="Tahoma" font-size="8.00" fill="navy">∞</text>
</g>
<!-- authors -->
<g id="node3" class="node"><title>authors</title>
<polygon fill="none" stroke="gray" points="130.5,-108 54.5,-108 54.5,-72 136.5,-72 136.5,-102 130.5,-108"/>
<polyline fill="none" stroke="gray" points="130.5,-108 130.5,-102 "/>
<polyline fill="none" stroke="gray" points="136.5,-102 130.5,-102 "/>
<text text-anchor="middle" x="95.5" y="-85" font-family="Tahoma" font-size="20.00">authors</text>
</g>
<!-- book_authors&#45;&#45;authors -->
<g id="edge2" class="edge"><title>book_authors&#45;&#45;authors</title>
<path fill="none" stroke="gray" d="M75.1742,-143.697C79.3593,-132.846 84.7321,-118.917 88.9026,-108.104"/>
<text text-anchor="middle" x="84.9026" y="-110.704" font-family="Tahoma" font-size="8.00" fill="navy">∞</text>
<text text-anchor="middle" x="71.1742" y="-137.297" font-family="Tahoma" font-size="8.00" fill="navy">∞</text>
</g>
<!-- author_ratings -->
<g id="node4" class="node"><title>author_ratings</title>
<polygon fill="none" stroke="gray" points="455,-36 316,-36 316,-0 461,-0 461,-30 455,-36"/>
<polyline fill="none" stroke="gray" points="455,-36 455,-30 "/>
<polyline fill="none" stroke="gray" points="461,-30 455,-30 "/>
<text text-anchor="middle" x="388.5" y="-13" font-family="Tahoma" font-size="20.00">author_ratings</text>
</g>
<!-- authors&#45;&#45;author_ratings -->
<g id="edge3" class="edge"><title>authors&#45;&#45;author_ratings</title>
<path fill="none" stroke="gray" d="M136.549,-79.1931C183.325,-68.0179 260.613,-49.5533 317.274,-36.0164"/>
<text text-anchor="middle" x="313.274" y="-38.6164" font-family="Tahoma" font-size="8.00" fill="navy">∞</text>
<text text-anchor="middle" x="139.049" y="-81.7931" font-family="Tahoma" font-size="8.00" fill="navy">1</text>
</g>
<!-- series -->
<g id="node6" class="node"><title>series</title>
<polygon fill="none" stroke="gray" points="242.5,-108 182.5,-108 182.5,-72 248.5,-72 248.5,-102 242.5,-108"/>
<polyline fill="none" stroke="gray" points="242.5,-108 242.5,-102 "/>
<polyline fill="none" stroke="gray" points="248.5,-102 242.5,-102 "/>
<text text-anchor="middle" x="215.5" y="-85" font-family="Tahoma" font-size="20.00">series</text>
</g>
<!-- book_series&#45;&#45;series -->
<g id="edge5" class="edge"><title>book_series&#45;&#45;series</title>
<path fill="none" stroke="gray" d="M215.5,-143.697C215.5,-132.846 215.5,-118.917 215.5,-108.104"/>
<text text-anchor="middle" x="211.5" y="-110.704" font-family="Tahoma" font-size="8.00" fill="navy">∞</text>
<text text-anchor="middle" x="211.5" y="-137.297" font-family="Tahoma" font-size="8.00" fill="navy">∞</text>
</g>
<!-- users -->
<g id="node9" class="node"><title>users</title>
<polygon fill="none" stroke="gray" points="707.5,-252 651.5,-252 651.5,-216 713.5,-216 713.5,-246 707.5,-252"/>
<polyline fill="none" stroke="gray" points="707.5,-252 707.5,-246 "/>
<polyline fill="none" stroke="gray" points="713.5,-246 707.5,-246 "/>
<text text-anchor="middle" x="682.5" y="-229" font-family="Tahoma" font-size="20.00">users</text>
</g>
<!-- users&#45;&#45;author_ratings -->
<g id="edge11" class="edge"><title>users&#45;&#45;author_ratings</title>
<path fill="none" stroke="gray" d="M683.203,-215.664C683.082,-196.171 680.034,-164.562 663.5,-144 613.054,-81.2654 524.233,-48.8219 461.193,-32.8989"/>
<text text-anchor="middle" x="465.193" y="-35.4989" font-family="Tahoma" font-size="8.00" fill="navy">∞</text>
<text text-anchor="middle" x="680.703" y="-209.264" font-family="Tahoma" font-size="8.00" fill="navy">1</text>
</g>
<!-- users&#45;&#45;book_reviews -->
<g id="edge10" class="edge"><title>users&#45;&#45;book_reviews</title>
<path fill="none" stroke="gray" d="M658.77,-215.697C643.889,-204.846 624.786,-190.917 609.957,-180.104"/>
<text text-anchor="middle" x="605.957" y="-182.704" font-family="Tahoma" font-size="8.00" fill="navy">∞</text>
<text text-anchor="middle" x="656.27" y="-209.297" font-family="Tahoma" font-size="8.00" fill="navy">1</text>
</g>
<!-- user_groups -->
<g id="node10" class="node"><title>user_groups</title>
<polygon fill="none" stroke="gray" points="830.5,-180 710.5,-180 710.5,-144 836.5,-144 836.5,-174 830.5,-180"/>
<polyline fill="none" stroke="gray" points="830.5,-180 830.5,-174 "/>
<polyline fill="none" stroke="gray" points="836.5,-174 830.5,-174 "/>
<text text-anchor="middle" x="773.5" y="-157" font-family="Tahoma" font-size="20.00">user_groups</text>
</g>
<!-- users&#45;&#45;user_groups -->
<g id="edge8" class="edge"><title>users&#45;&#45;user_groups</title>
<path fill="none" stroke="gray" d="M704.994,-215.697C719.1,-204.846 737.208,-190.917 751.264,-180.104"/>
<text text-anchor="middle" x="747.264" y="-182.704" font-family="Tahoma" font-size="8.00" fill="navy">∞</text>
<text text-anchor="middle" x="700.994" y="-209.297" font-family="Tahoma" font-size="8.00" fill="navy">∞</text>
</g>
<!-- groups -->
<g id="node11" class="node"><title>groups</title>
<polygon fill="none" stroke="gray" points="805.5,-108 735.5,-108 735.5,-72 811.5,-72 811.5,-102 805.5,-108"/>
<polyline fill="none" stroke="gray" points="805.5,-108 805.5,-102 "/>
<polyline fill="none" stroke="gray" points="811.5,-102 805.5,-102 "/>
<text text-anchor="middle" x="773.5" y="-85" font-family="Tahoma" font-size="20.00">groups</text>
</g>
<!-- user_groups&#45;&#45;groups -->
<g id="edge9" class="edge"><title>user_groups&#45;&#45;groups</title>
<path fill="none" stroke="gray" d="M773.5,-143.697C773.5,-132.846 773.5,-118.917 773.5,-108.104"/>
<text text-anchor="middle" x="769.5" y="-110.704" font-family="Tahoma" font-size="8.00" fill="navy">∞</text>
<text text-anchor="middle" x="769.5" y="-137.297" font-family="Tahoma" font-size="8.00" fill="navy">∞</text>
</g>
<!-- tags -->
<g id="node13" class="node"><title>tags</title>
<polygon fill="none" stroke="gray" points="467.5,-108 419.5,-108 419.5,-72 473.5,-72 473.5,-102 467.5,-108"/>
<polyline fill="none" stroke="gray" points="467.5,-108 467.5,-102 "/>
<polyline fill="none" stroke="gray" points="473.5,-102 467.5,-102 "/>
<text text-anchor="middle" x="446.5" y="-85" font-family="Tahoma" font-size="20.00">tags</text>
</g>
<!-- book_tags&#45;&#45;tags -->
<g id="edge13" class="edge"><title>book_tags&#45;&#45;tags</title>
<path fill="none" stroke="gray" d="M446.5,-143.697C446.5,-132.846 446.5,-118.917 446.5,-108.104"/>
<text text-anchor="middle" x="442.5" y="-110.704" font-family="Tahoma" font-size="8.00" fill="navy">∞</text>
<text text-anchor="middle" x="442.5" y="-137.297" font-family="Tahoma" font-size="8.00" fill="navy">∞</text>
</g>
</g>
</svg>
